<svg id="Layer_1" data-name="Layer 1" xmlns="http://www.w3.org/2000/svg" viewBox="0 0 219.52 254.61"><defs><style>.cls-1{fill:lime;}.cls-2{fill:#662d91;}.cls-3{fill:#f15a24;}.cls-4{fill:#333;}.cls-5{fill:#fff;}</style></defs><path d="M402.73,151.39c.18,2.33.65,4.65.62,7A28.73,28.73,0,0,1,402,168c-1,2.61-1.45,5.39-2.47,8-.87,2.17-1.55,4.51-3.33,6.21a20.76,20.76,0,0,1-2.6,2.37c-2.23,1.53-4,3.8-6.84,4.36a37.73,37.73,0,0,1-4.51.52c-1.17.1-2.35,0-3.51.17-.33,0-.65.49-.9.82a22.75,22.75,0,0,0-3.49,6.65c-.88,2.6-2.06,5.09-3.09,7.63a1.8,1.8,0,0,0-.17.78c.2,2.9.48,5.79.63,8.69a31.67,31.67,0,0,1-.39,9.06,55.24,55.24,0,0,0-1.43,7c-.26,2.49-.74,5.12.94,7.39a3.91,3.91,0,0,0,.81.61c.16.13.4.27.43.44a26.61,26.61,0,0,1,.41,3.07c.12,2.23.1,4.47.23,6.71a12.46,12.46,0,0,1-2.61,7.95,22.83,22.83,0,0,1-3.2,3.73,8.26,8.26,0,0,1-3,1.63,66.84,66.84,0,0,1-7.23,1.9c-1.88.38-3.83.44-5.75.64-1.4.14-2.8.31-4.21.44-1.66.14-3.32.32-5,.36-2.25,0-4.5,0-6.75-.06-1.85,0-3.7-.08-5.55-.06a6.28,6.28,0,0,0-1.55.49,11.6,11.6,0,0,0-1.28-.25c-2-.18-4-.3-5.93-.5-3.41-.33-6.81-.76-10.22-1-2.83-.25-5.68-.29-8.51-.55-1.23-.11-2.42-.64-3.65-.83a45.29,45.29,0,0,0-5.3-.62c-1.9-.08-3.81,0-5.71.09-3.63.11-7.25.19-10.87.38-1.71.08-3.41.33-5.1.58-2.18.34-4.35.77-6.52,1.14-3.21.54-6.41,1.17-9.64,1.57a49.5,49.5,0,0,1-11.15-.08,24.83,24.83,0,0,0-3.66,0c-3.29.14-6.41-.82-9.6-1.32a34.26,34.26,0,0,1-5.77-1.33c-2.08-.7-4.05-1.71-6.06-2.61-1.35-.6-2.7-1.22-4-1.89a2,2,0,0,1-.92-.94,16.24,16.24,0,0,1-.77-7.51,1.28,1.28,0,0,0,.06-.33c-.23-2.75,1.13-5,2.19-7.37a4.65,4.65,0,0,0,.35-1.85,54.24,54.24,0,0,0-.16-6.25,11.67,11.67,0,0,0-1.25-3.37c-1.21-2.62-2.48-5.19-2.29-8.21.07-1.13-.14-2.28-.16-3.42,0-1.9-.1-3.82,0-5.71.12-1.7.56-3.37.72-5.07a12.17,12.17,0,0,0-.14-3.07,33.16,33.16,0,0,0-1-4.76,72.82,72.82,0,0,0-2.48-6.91,20.4,20.4,0,0,0-2.11-3.21l-.24.34c-.33,0-.65,0-1-.05a8.17,8.17,0,0,0-2.1-.29c-3.48.52-6.31-.85-8.69-3.14-1.49-1.43-2.61-3.25-4-4.81s-1.26-3.32-1.69-5a6,6,0,0,0-1.6-3.35c-1-1-1.52-2.58-2.07-4a21.84,21.84,0,0,1-1-3.8,21.33,21.33,0,0,1-.78-4.84,76.19,76.19,0,0,1,.78-9.06,45.57,45.57,0,0,1,1.69-6.89c.68-2.13,1.64-4.17,2.45-6.26.32-.82.48-1.7.84-2.5a47,47,0,0,1,5.79-10.23c.83-1,1.44-2.24,2.22-3.32s1.49-1.83,2.24-2.74l.1.08c-.41.59-.84,1.17-1.23,1.77-2.37,3.65-5.19,7-6.91,11.06-1.32,3.12-2.72,6.21-3.87,9.39-1.22,3.38-2.25,6.83-3.2,10.3a15.74,15.74,0,0,0-.3,4.07c0,3-.39,6.08.65,9.06.74,2.1,1.19,4.32,2,6.37A4.21,4.21,0,0,0,191,175c3.42.19,6.84.46,10.27.66a12.11,12.11,0,0,0,1.69-.15c1.57,4.44,1.69,9.25,2.81,13.93,1.87.24,2.78,1.79,3.6,3.35a28.39,28.39,0,0,1,1.53,3.63,20.93,20.93,0,0,1,1.47,4.52c.31,2.58,1.24,5,.67,7.81a49.29,49.29,0,0,0-.6,9.81c0,2.37.35,4.76.55,7.13,0,.23,0,.52.13.67,1.33,1.59,1.31,3.76,2.36,5.47s.79,3.71.64,5.65a25.06,25.06,0,0,0,.17,3.35c0,.06.09.11.15.15,1.81,1.39,3.61,2.78,5.44,4.13a3.41,3.41,0,0,0,1.06.42,24.78,24.78,0,0,1,6.65,2.67,11.19,11.19,0,0,0,3.89,1.2c1.8.35,3.68.35,5.43.82,2.42.65,4.77,1.58,7.13,2.44s4.77,1.78,7.12,2.75a39,39,0,0,1,4.28,2,36.54,36.54,0,0,1,4.2,2.75c1,.74,1.8,1.72,2.72,2.56.24.22.62.5.88.45,2.25-.36,4.47-.91,6.72-1.16,2.45-.28,4.92-.3,7.38-.41,1.48-.06,3,.06,4.43-.14a69.87,69.87,0,0,1,12.44-.14,39,39,0,0,1,4.92,1c1.65.29,3.32.52,5,.68,3.45.32,6.9.57,10.36.85l3.86.32c2.31.2,4.62.5,6.94.58h.83c1.42,0,2.84-.22,4.28-.27s3,0,4.58.05,3.12.17,4.67.09c2.51-.14,5-.44,7.51-.64,1.76-.14,3.54-.16,5.3-.34a17.42,17.42,0,0,0,3.46-.62c2.67-.82,5.31-1.75,8-2.65a1,1,0,0,0,.44-.35c1.48-2,2.87-4,4.43-5.94s1.26-4.19,1.2-6.41c0-1.67,0-3.35-.12-5a16.6,16.6,0,0,0-.25-2.73c-.19-.92-.89-.71-1.44-.37-.93.59-1.79,1.27-2.71,1.86q-4.41,2.79-8.85,5.53c-.87.54-1.75,1.08-2.66,1.53a72.42,72.42,0,0,1-6.56,3.09c-3,1.13-6.19,1.84-9.18,3a21.81,21.81,0,0,0-5.4,3.15,65.26,65.26,0,0,0-5.44,5.22c-.43.42-.75.95-1.23,1.34.91-2.48,2.93-4,4.77-5.72a35.21,35.21,0,0,1,2.89-2.23,23.22,23.22,0,0,1,7.3-3.32,64.8,64.8,0,0,0,7.1-2.48c2.75-1.19,5.35-2.7,8.05-4a55,55,0,0,0,9.14-5.69c1.06-.8,2.24-1.42,3.46-2.18a15.21,15.21,0,0,1-1-1.76,11.12,11.12,0,0,1-.32-6.8c.49-2.35.76-4.75,1.26-7.1a29.31,29.31,0,0,0,.14-10.4,28.58,28.58,0,0,1-.29-6.78,22.78,22.78,0,0,1,1.61-5.22,32.1,32.1,0,0,1,1.44-3.23c1.27-2.6,2.56-5.18,3.9-7.74.13-.26.62-.35,1-.47.16-.06.37.05.55,0,2.37-.21,2.88-.86,2.66-3.7-.11-1.33-.36-2.65-.58-4-.36-2.24.16-3.91,1.65-4.38a17.8,17.8,0,0,1,3.73-.59c1.65-.14,3.32-.09,5-.25a42.38,42.38,0,0,0,4.63-.7,27.74,27.74,0,0,0,3.22-1c.16-.05.26-.36.32-.57.51-1.72,1-3.44,1.49-5.17a46.71,46.71,0,0,0,1.17-4.77,27.41,27.41,0,0,0,.48-5.34c-.08-2.69-.47-5.37-.69-8.07-.11-1.35,0-2.73-.24-4.07a14.85,14.85,0,0,0-.9-3.17c-1.33-3.54-2.67-7.08-4.1-10.59a22.3,22.3,0,0,0-1.74-3.08c-1.32-2.18-2.57-4.4-4-6.49-1.23-1.78-2.7-3.4-4.06-5.09-.47-.59-.92-1.21-1.41-1.78-2-2.28-3.92-4.59-6-6.81-2.27-2.47-4.61-4.87-6.95-7.27-.77-.79-1.68-1.45-2.47-2.21-2.33-2.25-4.63-4.53-7-6.85-.8.73-1.71,1.65-2.71,2.45a4.07,4.07,0,0,1-5.87-.21,49.62,49.62,0,0,1-4.84-4.66c-1.71-2.06-3.13-4.37-4.65-6.59a17.72,17.72,0,0,1-1.31-2.28c-1.11-2.29-2.22-4.58-3.24-6.91a26,26,0,0,1-2.34-9.06,39,39,0,0,1,.79-7.26,2,2,0,0,1,.85-1.16c.76-.55.66-1,.16-1.68-1.65-2.42-3.21-4.9-4.79-7.37-1.14-1.79-.3-3.54.11-5.3a5.48,5.48,0,0,0,.24-1.09,12.79,12.79,0,0,0-1.14-5.95c-1.26-2.57-2.92-4.22-6.16-3.76-1.69.24-3.37.51-5.06.75-.89.13-1.51.26-1.51-1.18A9.93,9.93,0,0,0,320.66,28a26,26,0,0,0-3.55-6.23,6.89,6.89,0,0,0-5.84-2.64,5.35,5.35,0,0,0-4.15,2.33,20.57,20.57,0,0,1-2.36,2.49c-1,1-1.61.66-2.12-.64a45.28,45.28,0,0,0-2.18-4.35,17.42,17.42,0,0,0-4.11-5.56,5.32,5.32,0,0,0-4.4-1.53c-4,.48-6,2.93-7.68,6.2a13,13,0,0,1-2.44,3c-.7.71-1.52.32-2.14-.22-1.16-1-2.22-2.1-3.41-3.06a26.28,26.28,0,0,0-4-2.81c-.7-.37-1.72-.13-2.6-.17h-.78a2.3,2.3,0,0,0,0-.26.57.57,0,0,0,0-.13c1,0,2.19-.48,3-.09A36.82,36.82,0,0,1,277,17.73a36.16,36.16,0,0,1,3.35,3c.63.61,1.17.17,1.49-.17a15.09,15.09,0,0,0,2-2.61c1-1.7,1.68-3.67,3.44-4.77s3.83-2.28,6.1-1.91a7.13,7.13,0,0,1,3.26,1.54,19.75,19.75,0,0,1,5.09,7.16c.5,1.07,1,2.14,1.47,3.2s.75,1,1.47.2c1.18-1.29,2.32-2.63,3.58-3.84s4.34-1.31,5.73-.53l1.81,1c2.7,1.49,3.87,4.13,4.94,6.77.74,1.84,1.11,3.83,1.67,5.75a.72.72,0,0,0,.54.41,23.65,23.65,0,0,0,2.92-.45c2.11-.51,4.17-.82,6.26.17a4.44,4.44,0,0,1,2.23,2.47c.63,1.49,1.1,3.05,1.61,4.59.79,2.4-.54,4.66-.53,7a3.07,3.07,0,0,0,.24,1.49c.93,1.56,2,3.07,3,4.6l2.79,4.34c1.48-.9,2.94-1.81,4.42-2.69,3.42-2,5.65-5.28,8.52-7.87a61.69,61.69,0,0,0,10.78-13.44,48.62,48.62,0,0,1,5.57-6.95,8.53,8.53,0,0,1,5.26-2.49,3.66,3.66,0,0,1,2.38,1.06,16.21,16.21,0,0,1,4.78,7.36c.38,1.18,1.17,2.25,1.42,3.44a40.32,40.32,0,0,1,.65,5.49,33.9,33.9,0,0,1,0,3.77c-.17,3.24-.21,6.5-.63,9.71a34.09,34.09,0,0,1-1.71,5.61c-.07.22-.15.43-.23.65-.57,1.65-1.2,3.29-1.7,5-1,3.34-2.86,6.23-4.61,9.15C374.29,78,372,81,369.9,84.1c-1.28,1.85-2.53,3.72-3.8,5.58-.28.41-.63.77-.92,1.17-1.53,2.14-1.56,2.18.31,4,2.93,2.89,6,5.64,8.86,8.6,3.55,3.66,7,7.45,10.41,11.22,1.43,1.58,2.85,3.17,4.12,4.88,1.54,2.06,2.93,4.24,4.34,6.39,1.17,1.8,2.32,3.61,3.38,5.47a47.67,47.67,0,0,1,3.89,9.57c.31,1,.66,1.93,1.05,2.87C402.56,146.29,402.53,148.85,402.73,151.39ZM399,175.7c-1.93.31-3.88.69-5.84.92-3.05.35-6.11.62-9.16.86-1.64.13-2.51,1-2.36,2.61.06.65.17,1.3.23,1.95.13,1.31.31,2.62.34,3.93a29.12,29.12,0,0,1-.24,2.94C389.75,189.33,397.48,181.67,399,175.7ZM384.65,43.36c.09-1.78,0-3.57,0-5.35l-.08,0a8.43,8.43,0,0,0-.25-1.33c-.5-1.39-1.07-2.75-1.57-4.15a17.91,17.91,0,0,0-5.32-7.83,2.36,2.36,0,0,0-1.61-.51,9.22,9.22,0,0,0-5.13,2.55c-3,2.76-4.87,6.41-7.25,9.66-1.38,1.88-2.7,3.79-4.09,5.66a19.5,19.5,0,0,1-1.83,2c-1.6,1.58-3.37,3-4.8,4.73a36.9,36.9,0,0,1-7.37,6.59,25.66,25.66,0,0,1-3.24,1.6c-1,.53-2.3.8-2.65,2.15a24.19,24.19,0,0,0-.61,2.78,22.06,22.06,0,0,0,1.12,10,71.17,71.17,0,0,0,4.53,10.55,35.18,35.18,0,0,0,7.82,10.45c1.12,1,2.24,2,3.42,2.84s3,1.09,3.83.33a60.54,60.54,0,0,0,5.26-5.49c1.78-2.22,3.3-4.66,4.88-7C371.85,80.39,374,77.19,376,74c.51-.8.82-1.74,1.35-2.53a34.32,34.32,0,0,0,4.08-9c1.08-3.28,2.61-6.45,2.53-10,0,0,0-.07,0-.11C384.22,49.34,384.49,46.35,384.65,43.36ZM264.11,263.28a19.77,19.77,0,0,0-2.26-2.23c-1.29-.93-2.79-1.57-4-2.55a14.3,14.3,0,0,0-5.12-2.65,33,33,0,0,1-6.42-2.39,33.22,33.22,0,0,0-8.17-2.76c-1.67-.37-3.41-.43-5.08-.79a10.76,10.76,0,0,1-3.66-1.22A16.94,16.94,0,0,0,224,246.4a13.17,13.17,0,0,1-5.65-3.35c-2-1.83-1.86-1.84-3.14.63a17.22,17.22,0,0,0-1.63,7.86c0,1.38.43,2.76.48,4.15a2.32,2.32,0,0,0,1.41,2.23c2.18,1,4.43,1.81,6.57,2.87a40.57,40.57,0,0,0,10.81,3.12c2.2.41,4.45.54,6.68.74,1.36.13,2.72.15,4.09.22a73.52,73.52,0,0,0,7.84.32c2.7-.15,5.38-.79,8.07-1.21ZM205,189.62c-.06-.66-.1-1.38-.21-2.08-.2-1.28-.46-2.54-.66-3.81-.27-1.7-.45-3.42-.78-5.11-.15-.83-.33-2-.9-2.33s-1.78-.11-2.69-.17c-2-.13-4-.3-6-.46l-4.22-.35a13.22,13.22,0,0,0,.2,1.48c.41,1.52.56,3.23,1.36,4.51a32.7,32.7,0,0,0,4.59,5.65,9,9,0,0,0,7.88,2.68A11.21,11.21,0,0,1,205,189.62Z" transform="translate(-183.83 -11.16)"/><path class="cls-1" d="M402.79,158.83a27.41,27.41,0,0,1-.48,5.34,46.71,46.71,0,0,1-1.17,4.77c-.47,1.73-1,3.45-1.49,5.17-.06.21-.16.52-.32.57a27.74,27.74,0,0,1-3.22,1,42.38,42.38,0,0,1-4.63.7c-1.65.16-3.32.11-5,.25a17.8,17.8,0,0,0-3.73.59c-1.49.47-2,2.14-1.65,4.38.22,1.31.47,2.63.58,4,.22,2.84-.29,3.49-2.66,3.7-.18,0-.39-.09-.55,0-.34.12-.83.21-1,.47-1.34,2.56-2.63,5.14-3.9,7.74a32.1,32.1,0,0,0-1.44,3.23,22.78,22.78,0,0,0-1.61,5.22,28.58,28.58,0,0,0,.29,6.78,29.31,29.31,0,0,1-.14,10.4c-.5,2.35-.77,4.75-1.26,7.1a11.12,11.12,0,0,0,.32,6.8,15.21,15.21,0,0,0,1,1.76c-1.22.76-2.4,1.38-3.46,2.18a55,55,0,0,1-9.14,5.69c-2.7,1.29-5.3,2.8-8.05,4a64.8,64.8,0,0,1-7.1,2.48,23.22,23.22,0,0,0-7.3,3.32,35.21,35.21,0,0,0-2.89,2.23c-1.84,1.69-3.86,3.24-4.77,5.72v.46h-.83c-2.32-.08-4.63-.38-6.94-.58l-3.86-.32c-3.46-.28-6.91-.53-10.36-.85-1.67-.16-3.34-.39-5-.68a39,39,0,0,0-4.92-1,69.87,69.87,0,0,0-12.44.14c-1.45.2-3,.08-4.43.14-2.46.11-4.93.13-7.38.41-2.25.25-4.47.8-6.72,1.16-.26.05-.64-.23-.88-.45-.92-.84-1.74-1.82-2.72-2.56a36.54,36.54,0,0,0-4.2-2.75,39,39,0,0,0-4.28-2c-2.35-1-4.73-1.87-7.12-2.75s-4.71-1.79-7.13-2.44c-1.75-.47-3.63-.47-5.43-.82a11.19,11.19,0,0,1-3.89-1.2,24.78,24.78,0,0,0-6.65-2.67,3.41,3.41,0,0,1-1.06-.42c-1.83-1.35-3.63-2.74-5.44-4.13-.06,0-.15-.09-.15-.15a25.06,25.06,0,0,1-.17-3.35c.15-1.94.44-3.89-.64-5.65s-1-3.88-2.36-5.47c-.13-.15-.11-.44-.13-.67-.2-2.37-.56-4.76-.55-7.13a49.29,49.29,0,0,1,.6-9.81c.57-2.79-.36-5.23-.67-7.81a20.93,20.93,0,0,0-1.47-4.52,28.39,28.39,0,0,0-1.53-3.63c-.82-1.56-1.73-3.11-3.6-3.35-1.12-4.68-1.24-9.49-2.81-13.93a12.11,12.11,0,0,1-1.69.15c-3.43-.2-6.85-.47-10.27-.66a4.21,4.21,0,0,1-3.89-2.58c-.86-2-1.31-4.27-2-6.37-1-3-.67-6-.65-9.06a15.74,15.74,0,0,1,.3-4.07c1-3.47,2-6.92,3.2-10.3,1.15-3.18,2.55-6.27,3.87-9.39,1.72-4.05,4.54-7.41,6.91-11.06.39-.6.82-1.18,1.23-1.77,1.73-1.86,3.43-3.76,5.21-5.58,2.55-2.62,5.17-5.18,7.75-7.78a6.22,6.22,0,0,0,1.25-1.47,25.62,25.62,0,0,0,1.57-3.75c.67-2.16,1.26-4.36,1.73-6.58.14-.63.27-1,.87-1.29,2.31-1,4.64-2,6.9-3.18A11.42,11.42,0,0,0,230,86.31c.83-1.4,1.59-2.85,2.44-4.24a24.36,24.36,0,0,0,2.05-3.13c1.17-2.86,2.25-5.75,3.16-8.7a51.6,51.6,0,0,0,1.11-5.72,9.68,9.68,0,0,0-.88-7.07,1.85,1.85,0,0,1,.16-1.47,26.8,26.8,0,0,1,2.08-3.29c1.27-1.7,2.67-3.31,4-5a17.2,17.2,0,0,0,2.73-4,38.29,38.29,0,0,0,1.46-6.33c.64-3.41,2.05-6.23,5.36-7.82a5.94,5.94,0,0,1,5.83.68,1.36,1.36,0,0,0,2.36-.52,13.16,13.16,0,0,0,.7-3.21c.21-2.39.21-4.83,1.3-7,.68-1.38,1.31-2.86,2.79-3.67.68-.37,1.32-.83,2-1.25l.26,0a2.3,2.3,0,0,1,0,.26h.78c.88,0,1.9-.2,2.6.17a26.28,26.28,0,0,1,4,2.81c1.19,1,2.25,2.08,3.41,3.06.62.54,1.44.93,2.14.22a13,13,0,0,0,2.44-3c1.64-3.27,3.7-5.72,7.68-6.2a5.32,5.32,0,0,1,4.4,1.53,17.42,17.42,0,0,1,4.11,5.56,45.28,45.28,0,0,1,2.18,4.35c.51,1.3,1.08,1.6,2.12.64a20.57,20.57,0,0,0,2.36-2.49,5.35,5.35,0,0,1,4.15-2.33,6.89,6.89,0,0,1,5.84,2.64A26,26,0,0,1,320.66,28a9.93,9.93,0,0,1,1.13,4.11c0,1.44.62,1.31,1.51,1.18,1.69-.24,3.37-.51,5.06-.75,3.24-.46,4.9,1.19,6.16,3.76a12.79,12.79,0,0,1,1.14,5.95,5.48,5.48,0,0,1-.24,1.09c-.41,1.76-1.25,3.51-.11,5.3,1.58,2.47,3.14,5,4.79,7.37.5.72.6,1.13-.16,1.68a2,2,0,0,0-.85,1.16,39,39,0,0,0-.79,7.26,26,26,0,0,0,2.34,9.06c1,2.33,2.13,4.62,3.24,6.91a17.72,17.72,0,0,0,1.31,2.28c1.52,2.22,2.94,4.53,4.65,6.59a49.62,49.62,0,0,0,4.84,4.66,4.07,4.07,0,0,0,5.87.21c1-.8,1.91-1.72,2.71-2.45,2.37,2.32,4.67,4.6,7,6.85.79.76,1.7,1.42,2.47,2.21,2.34,2.4,4.68,4.8,6.95,7.27,2,2.22,4,4.53,6,6.81.49.57.94,1.19,1.41,1.78,1.36,1.69,2.83,3.31,4.06,5.09,1.44,2.09,2.69,4.31,4,6.49a22.3,22.3,0,0,1,1.74,3.08c1.43,3.51,2.77,7,4.1,10.59a14.85,14.85,0,0,1,.9,3.17c.2,1.34.13,2.72.24,4.07C402.32,153.46,402.71,156.14,402.79,158.83Zm-74.6-8.54c2.39,0,3.68-1.22,3.63-3.39,0-1.22-1.77-3.31-2.74-3.23-2.34.19-3.81,1.11-3.8,2.81C325.3,149.29,326.08,150.3,328.19,150.29Zm1.4-15.57c.28-1.35-1.29-3.29-2.52-3.29-2.29.28-3.27.86-3,3.2,0,.15,0,.3,0,.46a3.11,3.11,0,0,0,2.2,3c1.09.36,1.78-.4,2.3-1.13A6,6,0,0,0,329.59,134.72Zm-5.26,23.4a9.67,9.67,0,0,0-.45-5.47,6.7,6.7,0,0,0-1.27-2.64,5.64,5.64,0,0,0-3.07-1.27,17.25,17.25,0,0,0-4.86.35c-2.24.49-4.43,1.24-6.62,1.94-.82.27-1.56.88-2.39,1.07-3.43.78-6.87,1.48-10.32,2.16-2.5.5-5,1-7.53,1.4a20.23,20.23,0,0,1-3.35.5c-2.69,0-5.39-.06-8.08-.14a31.37,31.37,0,0,1-10.13-2.11c-1.18-.44-2.32-1-3.47-1.45l-5.35-2.25c-1.71-.72-3.41-1.49-5.15-2.12a13.75,13.75,0,0,0-2.59-.45c-1-.14-3.51,1-3.77,1.72-.61,1.83-1.33,3.66-1,5.67a5.12,5.12,0,0,1,0,1.35,18.14,18.14,0,0,0,.49,7.56,25.53,25.53,0,0,0,5,9c.65.7,1.39,1.3,2.1,1.94a43.28,43.28,0,0,0,3.64,3.28,31.09,31.09,0,0,0,4.86,3,44.65,44.65,0,0,0,6.66,2.61c2,.57,4.07.64,6.08,1.07,3.93.84,7.88.13,11.82.25a30.77,30.77,0,0,0,4.53-.61c1.71-.21,3.42-.37,4.86-.53.41-.34.59-.59.82-.66,1.07-.35,2.17-.6,3.23-1a38.59,38.59,0,0,0,3.78-1.5c2.3-1.08,4.62-2.14,6.81-3.41a52.06,52.06,0,0,0,5.22-3.66,14.05,14.05,0,0,0,3-2.8c.76-1,2.3-1.34,2.48-3a6.89,6.89,0,0,1,1.63-2.83C323.48,163,323.83,160.51,324.33,158.12Zm-4.36-16s.09-.28,0-.43c-.45-.89-.73-2.13-1.47-2.55a3,3,0,0,0-3.22.45c-1,.74-.45,1.67-.52,2.54a2.71,2.71,0,0,0,3,3C318.77,145.16,320,143.56,320,142.17ZM314.64,121a71.78,71.78,0,0,0,.13-10.47,35.73,35.73,0,0,0-3-12,44.86,44.86,0,0,0-3.69-6,36.24,36.24,0,0,0-2.41-2.87c-.5-.58-.86-1.37-1.48-1.75-1.79-1.13-3.68-2.11-5.55-3.13A28.31,28.31,0,0,0,294,82.35a26.81,26.81,0,0,0-9.65-1.65c-1.43.06-2.87,0-4.34,0-1.24.2-2.53.3-3.77.62A23.07,23.07,0,0,0,269.09,84a14.11,14.11,0,0,0-2.42,1.83c-2.2,2.3-4.69,4.44-6.37,7.09a95.45,95.45,0,0,0-5.47,11,42.79,42.79,0,0,0-1.79,4.94,31,31,0,0,0-1.1,11.84,44.51,44.51,0,0,0,1.19,4.85,19,19,0,0,0,2.75,6.8c1.26,1.91,2.59,3.76,3.87,5.66a21.73,21.73,0,0,0,6,6.37c.84.54,1.76.94,2.63,1.42,2.19,1.19,4.23,2.77,6.78,3.07a75,75,0,0,0,9.33.74,43.37,43.37,0,0,0,7.67-1,20.12,20.12,0,0,0,11.07-5.45c2.44-2.47,5.06-4.77,7.09-7.68a25.28,25.28,0,0,0,3.14-6.92A31.64,31.64,0,0,0,314.64,121Zm-66.86,20.63c1.44-.43,2-1.75,2.14-3.59-.33-.51-.8-1.32-1.37-2.05a2.49,2.49,0,0,0-3.05-.84c-1.37.73-2.11,2-1.65,3.27a6.76,6.76,0,0,0,1.57,2.67A2.94,2.94,0,0,0,247.78,141.59Zm-5.79-7.4a3.63,3.63,0,0,0,1.35-3.37c-.14-3.67-2.62-5.73-5.59-4.85a3.66,3.66,0,0,0-2.37,4,7.64,7.64,0,0,0,2.07,4A3.87,3.87,0,0,0,242,134.19Zm-1.65,7.93a3.92,3.92,0,0,0-2-3.51,3.09,3.09,0,0,0-3.46.77,3.43,3.43,0,0,0-.84,3.88,4.77,4.77,0,0,0,3.37,2.75,16.94,16.94,0,0,0,1.84-1.11A3.46,3.46,0,0,0,240.34,142.12Z" transform="translate(-183.83 -11.16)"/><path class="cls-2" d="M393.11,176.62c2-.23,3.91-.61,5.84-.92-1.47,6-9.2,13.63-17,13.21a29.12,29.12,0,0,0,.24-2.94c0-1.31-.21-2.62-.34-3.93-.06-.65-.17-1.3-.23-1.95-.15-1.59.72-2.48,2.36-2.61C387,177.24,390.06,177,393.11,176.62Z" transform="translate(-183.83 -11.16)"/><path class="cls-2" d="M384.67,38c0,1.78.07,3.57,0,5.35-.16,3-.43,6-.65,9,0,0,0,.08,0,.11.08,3.57-1.45,6.74-2.53,10a34.32,34.32,0,0,1-4.08,9c-.53.79-.84,1.73-1.35,2.53-2.07,3.2-4.17,6.4-6.29,9.57-1.58,2.37-3.1,4.81-4.88,7a60.54,60.54,0,0,1-5.26,5.49c-.8.76-2.66.55-3.83-.33s-2.3-1.87-3.42-2.84a35.18,35.18,0,0,1-7.82-10.45A71.17,71.17,0,0,1,340,71.91a22.06,22.06,0,0,1-1.12-10,24.19,24.19,0,0,1,.61-2.78c.35-1.35,1.62-1.62,2.65-2.15a25.66,25.66,0,0,0,3.24-1.6,36.9,36.9,0,0,0,7.37-6.59c1.43-1.72,3.2-3.15,4.8-4.73a19.5,19.5,0,0,0,1.83-2c1.39-1.87,2.71-3.78,4.09-5.66,2.38-3.25,4.23-6.9,7.25-9.66a9.22,9.22,0,0,1,5.13-2.55,2.36,2.36,0,0,1,1.61.51,17.91,17.91,0,0,1,5.32,7.83c.5,1.4,1.07,2.76,1.57,4.15a8.43,8.43,0,0,1,.25,1.33Z" transform="translate(-183.83 -11.16)"/><path class="cls-2" d="M372,247.69c.06,2.22.42,4.45-1.2,6.41s-2.95,4-4.43,5.94a1,1,0,0,1-.44.35c-2.65.9-5.29,1.83-8,2.65a17.42,17.42,0,0,1-3.46.62c-1.76.18-3.54.2-5.3.34-2.51.2-5,.5-7.51.64-1.55.08-3.11-.06-4.67-.09s-3.06-.09-4.58-.05-2.86.25-4.28.27v-.46c.48-.39.8-.92,1.23-1.34a65.26,65.26,0,0,1,5.44-5.22,21.81,21.81,0,0,1,5.4-3.15c3-1.18,6.16-1.89,9.18-3a72.42,72.42,0,0,0,6.56-3.09c.91-.45,1.79-1,2.66-1.53q4.44-2.75,8.85-5.53c.92-.59,1.78-1.27,2.71-1.86.55-.34,1.25-.55,1.44.37a16.6,16.6,0,0,1,.25,2.73C371.91,244.34,371.91,246,372,247.69Z" transform="translate(-183.83 -11.16)"/><path d="M331.82,146.9c.05,2.17-1.24,3.37-3.63,3.39-2.11,0-2.89-1-2.91-3.81,0-1.7,1.46-2.62,3.8-2.81C330.05,143.59,331.79,145.68,331.82,146.9Zm-.56.35c0-1-1.46-2.94-2.25-2.92-1.85,0-3.09.93-3.07,2.2.06,2.43.79,3.37,2.58,3.3A3.16,3.16,0,0,0,331.26,147.25Z" transform="translate(-183.83 -11.16)"/><path class="cls-3" d="M329,144.33c.79,0,2.27,1.9,2.25,2.92a3.16,3.16,0,0,1-2.74,2.58c-1.79.07-2.52-.87-2.58-3.3C325.92,145.26,327.16,144.36,329,144.33Z" transform="translate(-183.83 -11.16)"/><path d="M327.07,131.43c1.23,0,2.8,1.94,2.52,3.29a6,6,0,0,1-1,2.2c-.52.73-1.21,1.49-2.3,1.13a3.11,3.11,0,0,1-2.2-3c0-.16,0-.31,0-.46C323.8,132.29,324.78,131.71,327.07,131.43Zm1.43,4.9a2.45,2.45,0,0,0,.17-2.91,7.59,7.59,0,0,0-1.25-1.42c-2,.18-3.07.5-2.8,2.41a1.93,1.93,0,0,1,0,.34,3,3,0,0,0,1.6,2.74C327.34,137.88,327.94,137,328.5,136.33Z" transform="translate(-183.83 -11.16)"/><path class="cls-3" d="M328.67,133.42a2.45,2.45,0,0,1-.17,2.91c-.56.67-1.16,1.55-2.28,1.16a3,3,0,0,1-1.6-2.74,1.93,1.93,0,0,0,0-.34c-.27-1.91.84-2.23,2.8-2.41A7.59,7.59,0,0,1,328.67,133.42Z" transform="translate(-183.83 -11.16)"/><path d="M323.88,152.65a9.67,9.67,0,0,1,.45,5.47c-.5,2.39-.85,4.88-2.36,7a6.89,6.89,0,0,0-1.63,2.83c-.18,1.67-1.72,2-2.48,3a14.05,14.05,0,0,1-3,2.8,52.06,52.06,0,0,1-5.22,3.66c-2.19,1.27-4.51,2.33-6.81,3.41a38.59,38.59,0,0,1-3.78,1.5c-1.06.37-2.16.62-3.23,1-.23.07-.41.32-.82.66-1.44.16-3.15.32-4.86.53a30.77,30.77,0,0,1-4.53.61c-3.94-.12-7.89.59-11.82-.25-2-.43-4.11-.5-6.08-1.07a44.65,44.65,0,0,1-6.66-2.61,31.09,31.09,0,0,1-4.86-3,43.28,43.28,0,0,1-3.64-3.28c-.71-.64-1.45-1.24-2.1-1.94a25.53,25.53,0,0,1-5-9,18.14,18.14,0,0,1-.49-7.56,5.12,5.12,0,0,0,0-1.35c-.35-2,.37-3.84,1-5.67.26-.77,2.8-1.86,3.77-1.72a13.75,13.75,0,0,1,2.59.45c1.74.63,3.44,1.4,5.15,2.12l5.35,2.25c1.15.48,2.29,1,3.47,1.45A31.37,31.37,0,0,0,276.39,156c2.69.08,5.39.17,8.08.14a20.23,20.23,0,0,0,3.35-.5c2.51-.45,5-.9,7.53-1.4,3.45-.68,6.89-1.38,10.32-2.16.83-.19,1.57-.8,2.39-1.07,2.19-.7,4.38-1.45,6.62-1.94a17.25,17.25,0,0,1,4.86-.35,5.64,5.64,0,0,1,3.07,1.27A6.7,6.7,0,0,1,323.88,152.65Zm-.33,6.56a10.78,10.78,0,0,0-.08-5.77c-.66-2.09-1.89-3.91-4.11-4.2a9,9,0,0,0-3.19,0,52.76,52.76,0,0,0-8.16,2.29,40.37,40.37,0,0,1-8.55,2.48c-4.07.69-8.12,1.5-12.19,2.13a54.67,54.67,0,0,1-7,.63c-2,0-4-.24-5.94-.37a8.27,8.27,0,0,1-1.87-.09c-2.76-.84-5.5-1.73-8.22-2.65-1.44-.49-2.87-1-4.25-1.67-2-.89-3.87-2-5.89-2.79a14.55,14.55,0,0,0-4.41-1,3.65,3.65,0,0,0-2.81.94,8.35,8.35,0,0,0-1.37,4c-.22,2.23-.06,4.49-.06,6.74L245,160a43.92,43.92,0,0,0,1.82,6.4,27.94,27.94,0,0,0,3.63,5.62,34.53,34.53,0,0,0,6.86,6.35,35.23,35.23,0,0,0,9.87,4.79,27,27,0,0,0,6.3,1c2.82.24,5.65.35,8.48.35,1.82,0,3.64-.33,5.45-.47a43.67,43.67,0,0,0,4.6-.32,35,35,0,0,0,5.61-1.54,76.52,76.52,0,0,0,8.1-3.39,53.38,53.38,0,0,0,6.95-4.28,29.24,29.24,0,0,0,7.31-7.12A23.56,23.56,0,0,0,323.55,159.21Z" transform="translate(-183.83 -11.16)"/><path class="cls-4" d="M323.47,153.44a10.78,10.78,0,0,1,.08,5.77,23.56,23.56,0,0,1-3.56,8.17,29.24,29.24,0,0,1-7.31,7.12,53.38,53.38,0,0,1-6.95,4.28,76.52,76.52,0,0,1-8.1,3.39,35,35,0,0,1-5.61,1.54,43.67,43.67,0,0,1-4.6.32c-1.81.14-3.63.47-5.45.47-2.83,0-5.66-.11-8.48-.35a27,27,0,0,1-6.3-1,35.23,35.23,0,0,1-9.87-4.79,34.53,34.53,0,0,1-6.86-6.35,27.94,27.94,0,0,1-3.63-5.62A43.92,43.92,0,0,1,245,160l.44-.06c0-2.25-.16-4.51.06-6.74a8.35,8.35,0,0,1,1.37-4,3.65,3.65,0,0,1,2.81-.94,14.55,14.55,0,0,1,4.41,1c2,.8,3.91,1.9,5.89,2.79,1.38.63,2.81,1.18,4.25,1.67,2.72.92,5.46,1.81,8.22,2.65a8.27,8.27,0,0,0,1.87.09c2,.13,4,.41,5.94.37a54.67,54.67,0,0,0,7-.63c4.07-.63,8.12-1.44,12.19-2.13a40.37,40.37,0,0,0,8.55-2.48,52.76,52.76,0,0,1,8.16-2.29,9,9,0,0,1,3.19,0C321.58,149.53,322.81,151.35,323.47,153.44Zm-10.71,18.27a.79.79,0,0,0,0-.76,2.87,2.87,0,0,0-1.15-.56c-1-.28-2.1-.5-3.17-.74.17,1.74.33,3.41.49,5.07l.5.25C310.52,173.89,311.66,172.82,312.76,171.71Zm-18.53-3.62c3.62-2.5,4.37-6.17,4.72-9.83l-14,.38C287.15,162.7,291,165.12,294.23,168.09Zm-4.4,13.63c-1.51-2.56-4.15-3.84-6.48-5.49-2,1.46-2.06,4-2.91,6.14C283.63,182.84,286.79,183,289.83,181.72Zm-21.17-1.44a1.5,1.5,0,0,0,0-1.3c-1-2.26-2-4.55-3.26-6.72-.39-.7-1.4-1.07-2.06-1.54a3.62,3.62,0,0,0-.81.33c-1.34,1.11-2.74,2.18-4,3.41-.94.95-.76,1.66.32,2.48a5.15,5.15,0,0,0,1.09.63c2.43,1,4.86,2,7.32,2.89A1.52,1.52,0,0,0,268.66,180.28Zm-2.59-21.15c.51-.52.32-.91-.41-1.24a6.6,6.6,0,0,1-2.29-1.34c-2-2.2-4.83-2.54-7.24-3.81a1.08,1.08,0,0,0-.5-.05c-1.41,0-1.48.09-1.16,1.29.42,1.58.75,3.18,1.22,4.73a11.39,11.39,0,0,0,2.92,5.44,1.42,1.42,0,0,0,1.35.16,31.83,31.83,0,0,0,3.53-2.61C264.41,160.92,265.21,160,266.07,159.13Z" transform="translate(-183.83 -11.16)"/><path d="M320,141.74c.07.15,0,.38,0,.43,0,1.39-1.2,3-2.22,3a2.71,2.71,0,0,1-3-3c.07-.87-.44-1.8.52-2.54a3,3,0,0,1,3.22-.45C319.26,139.61,319.54,140.85,320,141.74Zm-.48.53a2.41,2.41,0,0,0-2.08-2.66c-1.57,0-2,.43-2.05,2,0,1.85.82,3,2.18,3A2.51,2.51,0,0,0,319.51,142.27Z" transform="translate(-183.83 -11.16)"/><path class="cls-3" d="M317.43,139.61a2.41,2.41,0,0,1,2.08,2.66,2.51,2.51,0,0,1-1.95,2.35c-1.36,0-2.21-1.13-2.18-3C315.4,140,315.86,139.59,317.43,139.61Z" transform="translate(-183.83 -11.16)"/><path d="M314.77,110.49a71.78,71.78,0,0,1-.13,10.47,31.64,31.64,0,0,1-1.21,7.65,25.28,25.28,0,0,1-3.14,6.92c-2,2.91-4.65,5.21-7.09,7.68a20.12,20.12,0,0,1-11.07,5.45,43.37,43.37,0,0,1-7.67,1,75,75,0,0,1-9.33-.74c-2.55-.3-4.59-1.88-6.78-3.07-.87-.48-1.79-.88-2.63-1.42a21.73,21.73,0,0,1-6-6.37c-1.28-1.9-2.61-3.75-3.87-5.66a19,19,0,0,1-2.75-6.8,44.51,44.51,0,0,1-1.19-4.85,31,31,0,0,1,1.1-11.84,42.79,42.79,0,0,1,1.79-4.94,95.45,95.45,0,0,1,5.47-11c1.68-2.65,4.17-4.79,6.37-7.09A14.11,14.11,0,0,1,269.09,84a23.07,23.07,0,0,1,7.18-2.68c1.24-.32,2.53-.42,3.77-.62,1.47,0,2.91.05,4.34,0A26.81,26.81,0,0,1,294,82.35a28.31,28.31,0,0,1,4.58,2.42c1.87,1,3.76,2,5.55,3.13.62.38,1,1.17,1.48,1.75a36.24,36.24,0,0,1,2.41,2.87,44.86,44.86,0,0,1,3.69,6A35.73,35.73,0,0,1,314.77,110.49Zm-.42,3.66a38.12,38.12,0,0,0-2.05-12.52,24.5,24.5,0,0,0-4.9-9,29.68,29.68,0,0,1-2.09-2.4,4.82,4.82,0,0,0-4.19-2.09c-.5,0-1,0-1.49.06-2.69.06-5.38.06-8.06.21-1.81.1-3.61.41-5.17.59a4.69,4.69,0,0,0-.8,0c-4,1-8.08,1.86-12,3A41.44,41.44,0,0,0,266.77,95a19.08,19.08,0,0,0-8.08,7.13c-.94,1.56-2.1,3-3,4.58-1.11,1.94-2.48,3.87-2.95,6a27.66,27.66,0,0,0-.3,7.72c.09,1.61.91,3.16,1.22,4.77a19.2,19.2,0,0,0,2.54,6.53c1.26,2,2.62,4,3.94,6a18.12,18.12,0,0,0,5.51,5.85c1.46.9,2.88,1.86,4.4,2.64a22.35,22.35,0,0,0,4.08,1.69,24.66,24.66,0,0,0,4,.65c2,.22,4.06.46,6.1.52a34.5,34.5,0,0,0,4.29-.37c4.32-.44,8.54-1.48,12-4.14a56.43,56.43,0,0,0,8.3-8,21.54,21.54,0,0,0,4.72-11.15A88.46,88.46,0,0,0,314.35,114.15ZM295.43,87.43h6.93c-.35-.22-.58-.39-.84-.52a27.42,27.42,0,0,1-4.68-2.38,16.52,16.52,0,0,0-6.63-2.64,27.71,27.71,0,0,0-9.44-.6c-1.17.13-2.31.39-3.48.52a15.93,15.93,0,0,0-8.14,2.77,48.22,48.22,0,0,0-7.18,7c-2.52,3-3.93,6.59-5.09,10.28a3.81,3.81,0,0,0,0,1.17l.35,0,1.21-1.64a22.71,22.71,0,0,1,7.23-6.57,31,31,0,0,1,8.9-3.65c2.52-.51,5-1.4,7.48-2.07a23.46,23.46,0,0,1,3.34-.65c3-.37,6.1-.67,9.15-1C294.82,87.43,295.12,87.43,295.43,87.43Z" transform="translate(-183.83 -11.16)"/><path class="cls-5" d="M312.3,101.63a38.12,38.12,0,0,1,2.05,12.52,88.46,88.46,0,0,1-.79,11.28,21.54,21.54,0,0,1-4.72,11.15,56.43,56.43,0,0,1-8.3,8c-3.44,2.66-7.66,3.7-12,4.14a34.5,34.5,0,0,1-4.29.37c-2-.06-4.07-.3-6.1-.52a24.66,24.66,0,0,1-4-.65,22.35,22.35,0,0,1-4.08-1.69c-1.52-.78-2.94-1.74-4.4-2.64a18.12,18.12,0,0,1-5.51-5.85c-1.32-2-2.68-4-3.94-6a19.2,19.2,0,0,1-2.54-6.53c-.31-1.61-1.13-3.16-1.22-4.77a27.66,27.66,0,0,1,.3-7.72c.47-2.12,1.84-4,2.95-6,.9-1.59,2.06-3,3-4.58A19.08,19.08,0,0,1,266.77,95a41.44,41.44,0,0,1,6.79-2.91c4-1.18,8-2,12-3a4.69,4.69,0,0,1,.8,0c1.56-.18,3.36-.49,5.17-.59,2.68-.15,5.37-.15,8.06-.21.49,0,1-.06,1.49-.06a4.82,4.82,0,0,1,4.19,2.09,29.68,29.68,0,0,0,2.09,2.4A24.5,24.5,0,0,1,312.3,101.63Zm-16.67,11c.48-3-1-5.32-2.89-7.45a14.74,14.74,0,0,0-7.86-4.64c-1.16-.29-2.16-.75-3.11.34-.1.12-.44,0-.66.07a6,6,0,0,0-1.44.31c-3.81,1.77-6.36,4.91-8.58,8.28a18.44,18.44,0,0,0-1.79,5c-.73,2.55-.09,5,.67,7.47a5.17,5.17,0,0,0,.76,1.88c1.79,2.05,3.37,4.37,6,5.51.63.27,1.28.51,1.88.84a5.46,5.46,0,0,0,5.56,0c1.93-1.08,4.07-1.92,5.56-3.71a12.29,12.29,0,0,1,2-1.86c2.53-1.88,3.32-4.68,3.82-7.54A25.8,25.8,0,0,0,295.63,112.67Z" transform="translate(-183.83 -11.16)"/><path d="M312.72,171a.79.79,0,0,1,0,.76c-1.1,1.11-2.24,2.18-3.37,3.26l-.5-.25c-.16-1.66-.32-3.33-.49-5.07,1.07.24,2.13.46,3.17.74A2.87,2.87,0,0,1,312.72,171Zm-3.09,3.19c.88-1,2.5-1.33,2.78-3l-3.49-.58c.13,1.22.24,2.38.36,3.54Z" transform="translate(-183.83 -11.16)"/><path class="cls-5" d="M312.41,171.13c-.28,1.68-1.9,2-2.78,3l-.35,0c-.12-1.16-.23-2.32-.36-3.54Z" transform="translate(-183.83 -11.16)"/><path class="cls-1" d="M302.36,87.43h-6.93c-.31,0-.61,0-.91,0-3,.32-6.11.62-9.15,1a23.46,23.46,0,0,0-3.34.65c-2.5.67-5,1.56-7.48,2.07a31,31,0,0,0-8.9,3.65,22.71,22.71,0,0,0-7.23,6.57L257.21,103l-.35,0a3.81,3.81,0,0,1,0-1.17c1.16-3.69,2.57-7.32,5.09-10.28a48.22,48.22,0,0,1,7.18-7,15.93,15.93,0,0,1,8.14-2.77c1.17-.13,2.31-.39,3.48-.52a27.71,27.71,0,0,1,9.44.6,16.52,16.52,0,0,1,6.63,2.64,27.42,27.42,0,0,0,4.68,2.38C301.78,87,302,87.21,302.36,87.43Z" transform="translate(-183.83 -11.16)"/><path d="M299,158.26c-.35,3.66-1.1,7.33-4.72,9.83-3.27-3-7.08-5.39-9.31-9.45Zm-.68.71H285.69a17.86,17.86,0,0,0,1.69,2.29c1.74,1.7,3.56,3.32,5.37,4.94,1.1,1,1.73,1,2.74.21a1.78,1.78,0,0,0,.5-.62,42.72,42.72,0,0,0,2-4.23A10.31,10.31,0,0,0,298.27,159Z" transform="translate(-183.83 -11.16)"/><path class="cls-5" d="M285.69,159h12.58a10.31,10.31,0,0,1-.3,2.59,42.72,42.72,0,0,1-2,4.23,1.78,1.78,0,0,1-.5.62c-1,.82-1.64.78-2.74-.21-1.81-1.62-3.63-3.24-5.37-4.94A17.86,17.86,0,0,1,285.69,159Z" transform="translate(-183.83 -11.16)"/><path d="M292.74,105.22c1.85,2.13,3.37,4.42,2.89,7.45a25.8,25.8,0,0,1-.05,4.57c-.5,2.86-1.29,5.66-3.82,7.54a12.29,12.29,0,0,0-2,1.86c-1.49,1.79-3.63,2.63-5.56,3.71a5.46,5.46,0,0,1-5.56,0c-.6-.33-1.25-.57-1.88-.84-2.64-1.14-4.22-3.46-6-5.51a5.17,5.17,0,0,1-.76-1.88c-.76-2.44-1.4-4.92-.67-7.47a18.44,18.44,0,0,1,1.79-5c2.22-3.37,4.77-6.51,8.58-8.28a6,6,0,0,1,1.44-.31c.22,0,.56.05.66-.07,1-1.09,2-.63,3.11-.34A14.74,14.74,0,0,1,292.74,105.22Zm2.24,6.71c.64-.64.27-1.24,0-1.78a30.48,30.48,0,0,0-1.89-3.34,11.15,11.15,0,0,0-6.52-5,6.49,6.49,0,0,1-1.31-.43,2.31,2.31,0,0,0-2.77.08c-.23.19-.63.15-1,.22a.59.59,0,0,0,0-.13,2.16,2.16,0,0,0-.44,0c-.14,0-.28.13-.42.17-3.2,1.08-5.3,3.57-7.51,5.89a13.48,13.48,0,0,0-2.87,5.8,10.35,10.35,0,0,0-.66,4.6c.54,2.65.87,5.51,3.19,7.46,1.33,1.11,2.24,2.72,4,3.29a6.53,6.53,0,0,1,1.17.71,6.26,6.26,0,0,0,5.24.74,19.34,19.34,0,0,0,4.84-2.73,44.52,44.52,0,0,0,3.36-3.1,11.3,11.3,0,0,0,3.34-6,26.33,26.33,0,0,0,.3-5.35C295.1,112.63,294.82,112.08,295,111.93Z" transform="translate(-183.83 -11.16)"/><path class="cls-4" d="M295,110.15c.27.54.64,1.14,0,1.78-.16.15.12.7.11,1.06a26.33,26.33,0,0,1-.3,5.35,11.3,11.3,0,0,1-3.34,6,44.52,44.52,0,0,1-3.36,3.1,19.34,19.34,0,0,1-4.84,2.73,6.26,6.26,0,0,1-5.24-.74,6.53,6.53,0,0,0-1.17-.71c-1.8-.57-2.71-2.18-4-3.29-2.32-2-2.65-4.81-3.19-7.46a10.35,10.35,0,0,1,.66-4.6,13.48,13.48,0,0,1,2.87-5.8c2.21-2.32,4.31-4.81,7.51-5.89.14,0,.28-.14.42-.17a2.16,2.16,0,0,1,.44,0,.59.59,0,0,1,0,.13c.33-.07.73,0,1-.22a2.31,2.31,0,0,1,2.77-.08,6.49,6.49,0,0,0,1.31.43,11.15,11.15,0,0,1,6.52,5A30.48,30.48,0,0,1,295,110.15Zm-12.48.3c.24-.56-.38-1.53-.69-2.27a2.71,2.71,0,0,0-2.65-1.67c-1.89-.05-4.15,2.3-4.17,4.25,0,2.93,2.11,4.19,3.74,3.82C280.9,114.1,281.73,112.2,282.5,110.45Z" transform="translate(-183.83 -11.16)"/><path d="M283.35,176.23c2.33,1.65,5,2.93,6.48,5.49-3,1.32-6.2,1.12-9.39.65C281.29,180.2,281.35,177.69,283.35,176.23Zm5.95,5c-1.46-1.07-2.67-2-3.91-2.87-.37-.27-.82-.42-1.18-.69-1-.73-1.25-.73-1.73.37s-.94,2.55-1.46,3.95C283.78,182.33,286.39,182.52,289.3,181.18Z" transform="translate(-183.83 -11.16)"/><path class="cls-5" d="M285.39,178.31c1.24.89,2.45,1.8,3.91,2.87-2.91,1.34-5.52,1.15-8.28.76.52-1.4.92-2.7,1.46-3.95s.76-1.1,1.73-.37C284.57,177.89,285,178,285.39,178.31Z" transform="translate(-183.83 -11.16)"/><path d="M281.81,108.18c.31.74.93,1.71.69,2.27-.77,1.75-1.6,3.65-3.77,4.13-1.63.37-3.77-.89-3.74-3.82,0-2,2.28-4.3,4.17-4.25A2.71,2.71,0,0,1,281.81,108.18Zm-.56,3.53a3,3,0,0,0-1.74-4.52c-1.82-.37-3.77,1.41-3.87,3.74,0,.17.05.55.12.92.31,1.93,2,2.74,3.58,1.68A8.24,8.24,0,0,0,281.25,111.71Z" transform="translate(-183.83 -11.16)"/><path class="cls-5" d="M279.51,107.19a3,3,0,0,1,1.74,4.52,8.24,8.24,0,0,1-1.91,1.82c-1.62,1.06-3.27.25-3.58-1.68-.07-.37-.1-.75-.12-.92C275.74,108.6,277.69,106.82,279.51,107.19Z" transform="translate(-183.83 -11.16)"/><path d="M268.68,179a1.5,1.5,0,0,1,0,1.3,1.52,1.52,0,0,1-1.34.18c-2.46-.92-4.89-1.91-7.32-2.89a5.15,5.15,0,0,1-1.09-.63c-1.08-.82-1.26-1.53-.32-2.48,1.22-1.23,2.62-2.3,4-3.41a3.62,3.62,0,0,1,.81-.33c.66.47,1.67.84,2.06,1.54C266.64,174.43,267.65,176.72,268.68,179Zm-1,1.1c.15.06.36,0,.87-.08-1.29-2.66-2.5-5.2-3.76-7.71a1.52,1.52,0,0,0-.95-.53c-.21,0-.66.31-.71.25-.51-.69-.93-.25-1.32.09-.92.83-1.83,1.68-2.74,2.53s-.64,1.39.28,1.88,1.81,1,2.76,1.36C264,178.65,265.85,179.36,267.72,180.08Z" transform="translate(-183.83 -11.16)"/><path d="M268.48,14.27l.12.26c-.66.42-1.3.88-2,1.25-1.48.81-2.11,2.29-2.79,3.67-1.09,2.2-1.09,4.64-1.3,7a13.16,13.16,0,0,1-.7,3.21,1.36,1.36,0,0,1-2.36.52,5.94,5.94,0,0,0-5.83-.68c-3.31,1.59-4.72,4.41-5.36,7.82a38.29,38.29,0,0,1-1.46,6.33,17.2,17.2,0,0,1-2.73,4c-1.29,1.7-2.69,3.31-4,5A26.8,26.8,0,0,0,238.05,56a1.85,1.85,0,0,0-.16,1.47,9.68,9.68,0,0,1,.88,7.07,51.6,51.6,0,0,1-1.11,5.72c-.91,3-2,5.84-3.16,8.7a24.36,24.36,0,0,1-2.05,3.13c-.85,1.39-1.61,2.84-2.44,4.24a11.42,11.42,0,0,1-4.79,4.45c-2.26,1.14-4.59,2.15-6.9,3.18-.6.27-.73.66-.87,1.29-.47,2.22-1.06,4.42-1.73,6.58a25.62,25.62,0,0,1-1.57,3.75A6.22,6.22,0,0,1,212.9,107c-2.58,2.6-5.2,5.16-7.75,7.78-1.78,1.82-3.48,3.72-5.21,5.58l-.1-.08c1.47-1.79,2.87-3.64,4.42-5.35,1.68-1.87,3.48-3.63,5.25-5.41,1-1,2.12-1.86,3-2.91a10.61,10.61,0,0,0,1.72-2.8,63.64,63.64,0,0,0,2.55-6.78,8.85,8.85,0,0,0-.15-3l0,0s0,0,0,0a3,3,0,0,0,.8-.21c2.24-1.11,4.41-2.4,6.73-3.32a8.37,8.37,0,0,0,4.31-3.21c2.1-3.36,4.19-6.72,6.15-10.16a19,19,0,0,0,1.38-4,61.21,61.21,0,0,0,1.81-6.45c.4-2.15,1.08-4.35.42-6.54-.35-1.19-.73-2.7-1.62-3.34-1.64-1.17-3.7-1.74-5.52-2.67a18.06,18.06,0,0,1-6.38-5.4c-1.73-2.32-3.47-4.64-5.16-7-2-2.72-4-5.37-5.77-8.22-2.13-3.48-4.72-6.32-8.53-7.94a4.19,4.19,0,0,0-5.22,1.11,21,21,0,0,0-3,5.38,22.36,22.36,0,0,0-1.2,8.21c.13,3.3.36,6.59.59,9.89.16,2.19.34,4.39.63,6.56a37.89,37.89,0,0,0,3.22,11.66c1.11,2.28,2.25,4.56,3.34,6.86A52.15,52.15,0,0,0,211,86.16c1.91,2.31,3.73,4.71,5.56,7.08a2,2,0,0,1,.18.8h0c-2.19-2.79-4.34-5.61-6.6-8.34a60.55,60.55,0,0,1-7.81-11.89A79.08,79.08,0,0,1,198,63.57a43.48,43.48,0,0,1-1.27-7.34c-.24-1.65-.41-3.32-.55-5-.29-3.6-.67-7.19-.78-10.79a25.66,25.66,0,0,1,2.66-11.68,7.87,7.87,0,0,1,3.72-3.89,4.83,4.83,0,0,1,2.75-.06c2.5.46,4.38,2.1,6.18,3.73,2.9,2.62,4.48,6.2,6.55,9.42.58.89,1.33,1.67,2,2.52,2.08,2.82,4.08,5.69,6.24,8.44a18.12,18.12,0,0,0,3.16,2.89,24.81,24.81,0,0,0,3.18,2c1.3.75,2.66,1.4,4,2.11,1,.53,1.53.23,2.17-.74,1.71-2.61,3.6-5.11,5.44-7.63,1.05-1.43,2.21-2.79,3.19-4.26a5.3,5.3,0,0,0,.55-2.09,47.5,47.5,0,0,1,.78-5.08c.93-3.34,2.59-6.3,6.15-7.34,1.5-.45,3.31-.77,4.81.51a3.67,3.67,0,0,0,1.38.76,1,1,0,0,0,.94-.33,6.51,6.51,0,0,0,.73-2.12c.22-1.74.17-3.53.48-5.25.56-3,1.69-5.8,4.46-7.54A7.59,7.59,0,0,1,268.48,14.27Z" transform="translate(-183.83 -11.16)"/><path class="cls-5" d="M268.59,180c-.51.05-.72.14-.87.08-1.87-.72-3.73-1.43-5.57-2.21-.95-.39-1.85-.88-2.76-1.36s-1.09-1.12-.28-1.88,1.82-1.7,2.74-2.53c.39-.34.81-.78,1.32-.09.05.06.5-.3.71-.25a1.52,1.52,0,0,1,.95.53C266.09,174.8,267.3,177.34,268.59,180Z" transform="translate(-183.83 -11.16)"/><path d="M265.66,157.89c.73.33.92.72.41,1.24-.86.86-1.66,1.79-2.58,2.57a31.83,31.83,0,0,1-3.53,2.61,1.42,1.42,0,0,1-1.35-.16,11.39,11.39,0,0,1-2.92-5.44c-.47-1.55-.8-3.15-1.22-4.73-.32-1.2-.25-1.31,1.16-1.29a1.08,1.08,0,0,1,.5.05c2.41,1.27,5.28,1.61,7.24,3.81A6.6,6.6,0,0,0,265.66,157.89Zm-.34.85c-3.19-2.36-6.23-4.92-10.43-5.57.4,4.21,2.66,9.67,4.43,10.91A15.67,15.67,0,0,0,265.32,158.74Z" transform="translate(-183.83 -11.16)"/><path class="cls-2" d="M261.85,261.05a19.77,19.77,0,0,1,2.26,2.23l-4.58.7c-2.69.42-5.37,1.06-8.07,1.21a73.52,73.52,0,0,1-7.84-.32c-1.37-.07-2.73-.09-4.09-.22-2.23-.2-4.48-.33-6.68-.74A40.57,40.57,0,0,1,222,260.79c-2.14-1.06-4.39-1.88-6.57-2.87a2.32,2.32,0,0,1-1.41-2.23c-.05-1.39-.5-2.77-.48-4.15a17.22,17.22,0,0,1,1.63-7.86c1.28-2.47,1.1-2.46,3.14-.63A13.17,13.17,0,0,0,224,246.4a16.94,16.94,0,0,1,5.36,2.29,10.76,10.76,0,0,0,3.66,1.22c1.67.36,3.41.42,5.08.79a33.22,33.22,0,0,1,8.17,2.76,33,33,0,0,0,6.42,2.39,14.3,14.3,0,0,1,5.12,2.65C259.06,259.48,260.56,260.12,261.85,261.05Z" transform="translate(-183.83 -11.16)"/><path class="cls-5" d="M254.89,153.17c4.2.65,7.24,3.21,10.43,5.57a15.67,15.67,0,0,1-6,5.34C257.55,162.84,255.29,157.38,254.89,153.17Z" transform="translate(-183.83 -11.16)"/><path d="M249.92,138c-.14,1.84-.7,3.16-2.14,3.59a2.94,2.94,0,0,1-2.36-.54,6.76,6.76,0,0,1-1.57-2.67c-.46-1.28.28-2.54,1.65-3.27a2.49,2.49,0,0,1,3.05.84C249.12,136.68,249.59,137.49,249.92,138Zm-.52.52a3.61,3.61,0,0,0-2.9-3.07,2.4,2.4,0,0,0-2.2,2.24c0,1.55,1.36,3.39,2.59,3.44A2.61,2.61,0,0,0,249.4,138.52Z" transform="translate(-183.83 -11.16)"/><path class="cls-3" d="M246.5,135.45a3.61,3.61,0,0,1,2.9,3.07,2.61,2.61,0,0,1-2.51,2.61c-1.23,0-2.62-1.89-2.59-3.44A2.4,2.4,0,0,1,246.5,135.45Z" transform="translate(-183.83 -11.16)"/><path d="M243.34,130.82a3.63,3.63,0,0,1-1.35,3.37,3.87,3.87,0,0,1-4.54-.22,7.64,7.64,0,0,1-2.07-4,3.66,3.66,0,0,1,2.37-4C240.72,125.09,243.2,127.15,243.34,130.82Zm-1.18,2.33a4.86,4.86,0,0,0-1.09-6.35c-1.25-1.11-2.55-.65-3.64-.09-.8.41-1.25,1.5-1.7,2.08.41,2.19.91,3.89,2.5,5S241.31,134.65,242.16,133.15Z" transform="translate(-183.83 -11.16)"/><path class="cls-3" d="M241.07,126.8a4.86,4.86,0,0,1,1.09,6.35c-.85,1.5-2.38,1.72-3.93.64s-2.09-2.81-2.5-5c.45-.58.9-1.67,1.7-2.08C238.52,126.15,239.82,125.69,241.07,126.8Z" transform="translate(-183.83 -11.16)"/><path d="M238.39,138.61a3.92,3.92,0,0,1,2,3.51,3.46,3.46,0,0,1-1,2.78,16.94,16.94,0,0,1-1.84,1.11,4.77,4.77,0,0,1-3.37-2.75,3.43,3.43,0,0,1,.84-3.88A3.09,3.09,0,0,1,238.39,138.61Zm-1,6.68a3,3,0,0,0,2.37-2.95c0-2.09-1.12-3.39-2.77-3.34a2.88,2.88,0,0,0-2.66,3C234.41,143.54,236.07,145.34,237.43,145.29Z" transform="translate(-183.83 -11.16)"/><path class="cls-3" d="M239.8,142.34a3,3,0,0,1-2.37,2.95c-1.36.05-3-1.75-3.06-3.31a2.88,2.88,0,0,1,2.66-3C238.68,139,239.76,140.25,239.8,142.34Z" transform="translate(-183.83 -11.16)"/><path class="cls-2" d="M238.3,60.18c.66,2.19,0,4.39-.42,6.54a61.21,61.21,0,0,1-1.81,6.45,19,19,0,0,1-1.38,4c-2,3.44-4.05,6.8-6.15,10.16a8.37,8.37,0,0,1-4.31,3.21c-2.32.92-4.49,2.21-6.73,3.32a3,3,0,0,1-.8.21,2,2,0,0,0-.18-.8c-1.83-2.37-3.65-4.77-5.56-7.08a52.15,52.15,0,0,1-7.25-10.87c-1.09-2.3-2.23-4.58-3.34-6.86a37.89,37.89,0,0,1-3.22-11.66c-.29-2.17-.47-4.37-.63-6.56-.23-3.3-.46-6.59-.59-9.89a22.36,22.36,0,0,1,1.2-8.21,21,21,0,0,1,3-5.38,4.19,4.19,0,0,1,5.22-1.11c3.81,1.62,6.4,4.46,8.53,7.94,1.75,2.85,3.81,5.5,5.77,8.22,1.69,2.35,3.43,4.67,5.16,7a18.06,18.06,0,0,0,6.38,5.4c1.82.93,3.88,1.5,5.52,2.67C237.57,57.48,238,59,238.3,60.18Z" transform="translate(-183.83 -11.16)"/><path class="cls-5" d="M216.7,94s0,0,0,0l0,0Z" transform="translate(-183.83 -11.16)"/><path class="cls-5" d="M216.68,94.05l0,0,0,0Z" transform="translate(-183.83 -11.16)"/><path class="cls-2" d="M204.78,187.54c.11.7.15,1.42.21,2.08a11.21,11.21,0,0,0-1.43,0,9,9,0,0,1-7.88-2.68,32.7,32.7,0,0,1-4.59-5.65c-.8-1.28-1-3-1.36-4.51a13.22,13.22,0,0,1-.2-1.48l4.22.35c2,.16,4,.33,6,.46.91.06,2-.25,2.69.17s.75,1.5.9,2.33c.33,1.69.51,3.41.78,5.11C204.32,185,204.58,186.26,204.78,187.54Z" transform="translate(-183.83 -11.16)"/></svg>